<svg xmlns="http://www.w3.org/2000/svg" viewBox="0 0 800 400">
    <path d="M400,29.683v10c0,2.761-2.239,5-5,5h-10c-2.761,0-5-2.239-5-5v-10c0-2.761-2.239-5-5-5h-10 c-2.761,0-5,2.239-5,5v10c0,2.761-2.239,5-5,5h-10c-2.761,0-5-2.239-5-5v-10c0-2.761-2.239-5-5-5h-10c-2.761,0-5,2.239-5,5v10 c0,2.761-2.239,5-5,5h-10c-2.761,0-5,2.239-5,5v10c0,2.761,2.239,5,5,5h10c2.761,0,5,2.239,5,5v10c0,2.761-2.239,5-5,5h-10 c-2.761,0-5,2.239-5,5v10c0,2.761,2.239,5,5,5h10c2.761,0,5,2.239,5,5v10c0,2.761-2.239,5-5,5h-10c-2.761,0-5,2.239-5,5v90 c0,2.761,2.239,5,5,5h95h40h20h35c2.761,0,5-2.239,5-5v-155v-20v-15c0-2.761-2.239-5-5-5h-90C402.239,24.683,400,26.921,400,29.683 z M345,64.683h10c2.761,0,5,2.239,5,5v10c0,2.761-2.239,5-5,5h-10c-2.761,0-5-2.239-5-5v-10C340,66.921,342.239,64.683,345,64.683z M340,119.683v-10c0-2.761,2.239-5,5-5h10c2.761,0,5,2.239,5,5v10c0,2.761-2.239,5-5,5h-10 C342.239,124.683,340,122.444,340,119.683z M395,124.683h-10c-2.761,0-5-2.239-5-5v-10c0-2.761,2.239-5,5-5h10c2.761,0,5,2.239,5,5 v10C400,122.444,397.761,124.683,395,124.683z M395,84.683h-10c-2.761,0-5-2.239-5-5v-10c0-2.761,2.239-5,5-5h10 c2.761,0,5,2.239,5,5v10C400,82.444,397.761,84.683,395,84.683z M475,64.683h-10c-2.761,0-5,2.239-5,5v130c0,2.761-2.239,5-5,5h-10 c-2.761,0-5-2.239-5-5v-130c0-2.761-2.239-5-5-5h-10c-2.761,0-5-2.239-5-5v-10c0-2.761,2.239-5,5-5h50c2.761,0,5,2.239,5,5v10 C480,62.444,477.761,64.683,475,64.683z M24.739,269.242h13.254c2.039,0,3.693,1.653,3.693,3.693v15.575 c0,0.114-0.005,0.228-0.016,0.342l-0.191,2.05c-0.278,2.989,2.91,4.996,5.531,3.533c3.218-1.797,7.079-3.114,11.714-3.114 c13.199,0,18.719,9.6,18.719,24.479v33.266c0,2.039-1.653,3.693-3.693,3.693H60.498c-2.039,0-3.693-1.653-3.693-3.693V318.44 c0-7.68-1.92-9.6-6-9.6c-3.305,0-5.365,1.244-7.863,3.426c-0.799,0.698-1.256,1.717-1.256,2.778v34.021 c0,2.039-1.653,3.693-3.693,3.693H24.739c-2.039,0-3.693-1.653-3.693-3.693v-76.131C21.047,270.895,22.7,269.242,24.739,269.242z M115.118,314.937c4.364-0.769,3.877-7.263-0.555-7.296c-0.052,0-0.105-0.001-0.158-0.001c-3.556,0-7.275,1.138-11.96,3.415 c-1.783,0.866-3.937,0.175-4.873-1.572l-3.779-7.055c-0.961-1.793-0.299-4.047,1.499-4.998c7.395-3.913,15.019-6.109,23.192-6.109 c15.6,0,24.959,8.399,24.959,28.079v29.666c0,2.039-1.653,3.693-3.693,3.693h-10.223c-1.694,0-3.171-1.153-3.582-2.797 l-0.741-2.963h-0.479c-4.8,4.32-10.08,7.199-16.56,7.199c-11.279,0-17.999-8.639-17.999-18.479 C90.166,324.731,97.609,318.022,115.118,314.937z M115.364,338.359c2.817,0,4.622-1.181,6.405-2.977 c0.674-0.679,1.035-1.609,1.035-2.565v-2.204c0-2.432-2.314-4.188-4.665-3.566c-6.193,1.638-8.295,4.234-8.295,6.992 C109.845,336.8,111.765,338.359,115.364,338.359z M160.544,336.008c1.136-1.584,3.31-2.006,4.962-0.971 c4.369,2.74,8.318,4.042,11.777,4.042c4.319,0,6-1.199,6-3.6c0-3.12-5.521-4.56-11.52-6.96c-6.96-2.76-15.12-7.919-15.12-17.759 c0-11.76,9.6-19.439,23.76-19.439c7.921,0,13.975,2.566,18.79,5.633c1.824,1.162,2.304,3.61,1.011,5.345l-4.756,6.383 c-1.139,1.528-3.25,1.926-4.881,0.941c-3.327-2.007-6.532-3.183-9.443-3.183c-3.479,0-5.28,0.96-5.28,3.36 c0,3.12,5.28,4.319,11.28,6.479c7.199,2.64,15.359,7.199,15.359,17.999c0,11.28-8.88,19.919-25.679,19.919 c-6.474,0-14.143-2.388-20.13-6.157c-1.784-1.123-2.219-3.54-0.991-5.254L160.544,336.008z M217.457,269.242h13.253 c2.039,0,3.693,1.653,3.693,3.693v15.575c0,0.114-0.005,0.228-0.016,0.342l-0.191,2.05c-0.278,2.989,2.91,4.997,5.531,3.533 c3.218-1.797,7.079-3.114,11.714-3.114c13.2,0,18.72,9.6,18.72,24.479v33.266c0,2.039-1.653,3.693-3.693,3.693h-13.254 c-2.039,0-3.693-1.653-3.693-3.693V318.44c0-7.68-1.92-9.6-5.999-9.6c-3.305,0-5.365,1.244-7.864,3.426 c-0.799,0.698-1.256,1.717-1.256,2.778v34.021c0,2.039-1.653,3.693-3.693,3.693h-13.253c-2.039,0-3.693-1.653-3.693-3.693v-76.131 C213.765,270.895,215.418,269.242,217.457,269.242z M294.068,292.041h-13.253c-2.039,0-3.693-1.653-3.693-3.693v-9.894 c0-2.039,1.653-3.693,3.693-3.693h54.533c2.039,0,3.693,1.653,3.693,3.693v9.894c0,2.039-1.653,3.693-3.693,3.693h-13.254 c-2.039,0-3.693,1.653-3.693,3.693v53.333c0,2.039-1.653,3.693-3.693,3.693h-13.254c-2.039,0-3.693-1.653-3.693-3.693v-53.333 C297.761,293.694,296.108,292.041,294.068,292.041z M365.914,314.937c4.364-0.769,3.877-7.263-0.555-7.296 c-0.052,0-0.105-0.001-0.158-0.001c-3.556,0-7.275,1.138-11.96,3.415c-1.783,0.866-3.937,0.175-4.873-1.572l-3.779-7.055 c-0.961-1.793-0.299-4.047,1.499-4.998c7.395-3.913,15.019-6.109,23.192-6.109c15.6,0,24.959,8.399,24.959,28.079v29.666 c0,2.039-1.653,3.693-3.693,3.693h-10.223c-1.694,0-3.171-1.153-3.582-2.797l-0.741-2.963h-0.479 c-4.8,4.32-10.08,7.199-16.56,7.199c-11.279,0-17.999-8.639-17.999-18.479C340.963,324.731,348.406,318.022,365.914,314.937z M366.161,338.359c2.817,0,4.622-1.181,6.405-2.977c0.674-0.679,1.035-1.609,1.035-2.565v-2.204c0-2.432-2.314-4.188-4.665-3.566 c-6.193,1.638-8.295,4.234-8.295,6.992C360.642,336.8,362.562,338.359,366.161,338.359z M412.814,269.242h13.253 c2.039,0,3.693,1.653,3.693,3.693v15.644c0,0.068-0.002,0.136-0.006,0.205l-0.063,1.137c-0.157,2.832,2.781,4.727,5.34,3.502 c2.861-1.37,5.935-2.102,9.008-2.102c14.16,0,23.399,12,23.399,30.358c0,20.76-12.239,32.519-24.959,32.519 c-5.279,0-10.56-2.64-15.119-7.919h-0.48l-0.963,3.714c-0.422,1.629-1.892,2.766-3.574,2.766h-9.529 c-2.039,0-3.693-1.653-3.693-3.693v-76.131C409.121,270.895,410.774,269.242,412.814,269.242z M437.439,337.399 c4.8,0,8.88-3.84,8.88-15.359c0-9.84-2.88-13.92-8.399-13.92c-2.712,0-4.881,0.907-7.135,3.194 c-0.668,0.677-1.025,1.606-1.025,2.557v18.811c0,1.26,0.629,2.457,1.703,3.116C433.383,336.974,435.411,337.399,437.439,337.399z M483.613,269.242h13.253c2.039,0,3.693,1.653,3.693,3.693v15.644c0,0.068-0.002,0.136-0.006,0.205l-0.063,1.137 c-0.157,2.832,2.781,4.727,5.34,3.502c2.861-1.37,5.935-2.102,9.008-2.102c14.16,0,23.399,12,23.399,30.358 c0,20.76-12.239,32.519-24.959,32.519c-5.279,0-10.56-2.64-15.119-7.919h-0.48l-0.963,3.714c-0.422,1.629-1.892,2.766-3.574,2.766 h-9.529c-2.039,0-3.693-1.653-3.693-3.693v-76.131C479.92,270.895,481.573,269.242,483.613,269.242z M508.238,337.399 c4.8,0,8.88-3.84,8.88-15.359c0-9.84-2.88-13.92-8.399-13.92c-2.712,0-4.881,0.907-7.135,3.194 c-0.668,0.677-1.025,1.606-1.025,2.557v18.811c0,1.26,0.629,2.457,1.703,3.116C504.181,336.974,506.21,337.399,508.238,337.399z M576.396,291.321c17.759,0,26.159,12.959,26.159,29.039c0,1.817-0.122,3.511-0.29,4.93c-0.218,1.848-1.803,3.23-3.664,3.23H573.36 c-3.238,0-4.891,3.857-2.689,6.232c2.625,2.83,6.39,3.848,10.765,3.848c3.11,0,6.08-0.697,9.229-2.092 c1.746-0.773,3.797-0.075,4.716,1.599l3.331,6.067c0.981,1.787,0.332,4.035-1.453,5.019c-5.962,3.288-13.019,5.005-18.703,5.005 c-17.52,0-30.959-11.52-30.959-31.438C547.598,303.321,561.757,291.321,576.396,291.321z M580.679,316.04 c2.655,0,4.519-2.754,3.394-5.159c-1.12-2.392-3.328-3.96-7.196-3.96c-2.78,0-5.292,0.936-7.101,3.162 c-1.936,2.381-0.146,5.957,2.922,5.957H580.679z M618.729,292.761h9.893c1.842,0,3.403,1.358,3.657,3.182l0.996,7.138h0.479 c4.44-8.16,11.16-11.76,17.039-11.76c1.437,0,2.623,0.072,3.635,0.201c2.116,0.271,3.567,2.258,3.171,4.353l-2.031,10.732 c-0.373,1.973-2.25,3.257-4.234,2.956c-0.974-0.148-2.006-0.243-3.18-0.243c-4.185,0-9.273,2.478-12.204,9.401 c-0.188,0.444-0.275,0.927-0.275,1.409v28.936c0,2.039-1.653,3.693-3.693,3.693h-13.253c-2.039,0-3.693-1.653-3.693-3.693v-52.613 C615.036,294.414,616.689,292.761,618.729,292.761z M658.666,331.493c13.997-7.798,25.446,6.108,17.192,19.266 c-0.308,0.491-0.742,0.902-1.248,1.184c-14,7.801-25.453-6.108-17.192-19.267C657.726,332.186,658.16,331.775,658.666,331.493z M702.729,292.761h13.253c2.039,0,3.693,1.653,3.693,3.693v53.185c0,13.439-5.279,25.679-23.279,25.679 c-3.255,0-5.676-0.25-7.656-0.653c-2.026-0.412-3.284-2.453-2.805-4.464l1.932-8.114c0.432-1.814,2.122-3.094,3.977-2.907 c0.389,0.039,0.781,0.059,1.193,0.059c4.319,0,6-2.399,6-8.88v-53.905C699.036,294.414,700.689,292.761,702.729,292.761z M697.836,275.002c0-6,4.8-10.319,11.52-10.319s11.52,4.319,11.52,10.319s-4.8,10.319-11.52,10.319 S697.836,281.002,697.836,275.002z M737.015,336.008c1.136-1.584,3.31-2.006,4.962-0.971c4.369,2.74,8.318,4.042,11.777,4.042 c4.319,0,6-1.199,6-3.6c0-3.12-5.521-4.56-11.52-6.96c-6.96-2.76-15.12-7.919-15.12-17.759c0-11.76,9.6-19.439,23.76-19.439 c7.921,0,13.975,2.566,18.79,5.633c1.824,1.162,2.304,3.61,1.011,5.345l-4.757,6.383c-1.138,1.528-3.25,1.926-4.881,0.941 c-3.327-2.007-6.532-3.183-9.443-3.183c-3.479,0-5.28,0.96-5.28,3.36c0,3.12,5.28,4.319,11.28,6.479 c7.199,2.64,15.359,7.199,15.359,17.999c0,11.28-8.88,19.919-25.679,19.919c-6.474,0-14.143-2.388-20.13-6.157 c-1.784-1.123-2.219-3.54-0.991-5.254L737.015,336.008z"/>
</svg>