<svg xmlns="http://www.w3.org/2000/svg" viewBox="0 0 800 400">
    <path d="M80.223,285.321h13.253c2.039,0,3.693,1.653,3.693,3.693v21.654c0,2.039,1.653,3.693,3.693,3.693h15.894 c2.039,0,3.693-1.653,3.693-3.693v-21.654c0-2.039,1.653-3.693,3.693-3.693h13.254c2.039,0,3.693,1.653,3.693,3.693v70.612 c0,2.039-1.653,3.693-3.693,3.693h-13.254c-2.039,0-3.693-1.653-3.693-3.693v-23.574c0-2.039-1.653-3.693-3.693-3.693h-15.894 c-2.039,0-3.693,1.653-3.693,3.693v23.574c0,2.039-1.653,3.693-3.693,3.693H80.223c-2.039,0-3.693-1.653-3.693-3.693v-70.612 C76.53,286.975,78.184,285.321,80.223,285.321z M180.92,325.497c4.364-0.769,3.877-7.263-0.555-7.296 c-0.052,0-0.105-0.001-0.158-0.001c-3.556,0-7.274,1.138-11.959,3.415c-1.783,0.866-3.937,0.175-4.873-1.572l-3.779-7.055 c-0.961-1.793-0.299-4.047,1.499-4.999c7.395-3.913,15.019-6.109,23.192-6.109c15.6,0,24.959,8.399,24.959,28.079v29.666 c0,2.039-1.653,3.693-3.693,3.693h-10.223c-1.694,0-3.171-1.153-3.582-2.797l-0.741-2.963h-0.479c-4.8,4.32-10.08,7.199-16.56,7.199 c-11.279,0-17.999-8.639-17.999-18.479C155.97,335.291,163.413,328.582,180.92,325.497z M181.169,348.919 c2.817,0,4.621-1.181,6.404-2.977c0.674-0.679,1.035-1.609,1.035-2.565v-2.203c0-2.433-2.314-4.188-4.666-3.566 c-6.193,1.638-8.294,4.234-8.294,6.992C175.648,347.359,177.568,348.919,181.169,348.919z M226.349,346.567 c1.136-1.584,3.31-2.006,4.962-0.971c4.369,2.74,8.318,4.042,11.777,4.042c4.319,0,6-1.199,6-3.6c0-3.12-5.521-4.56-11.52-6.96 c-6.96-2.76-15.12-7.919-15.12-17.759c0-11.76,9.6-19.439,23.76-19.439c7.921,0,13.975,2.566,18.79,5.633 c1.824,1.162,2.304,3.611,1.011,5.345l-4.756,6.383c-1.139,1.528-3.25,1.926-4.882,0.941c-3.327-2.007-6.532-3.183-9.443-3.183 c-3.479,0-5.28,0.96-5.28,3.36c0,3.12,5.28,4.319,11.28,6.479c7.199,2.64,15.359,7.199,15.359,17.999 c0,11.28-8.88,19.919-25.679,19.919c-6.474,0-14.143-2.388-20.129-6.157c-1.784-1.123-2.219-3.541-0.991-5.254L226.349,346.567z M283.261,279.802h13.253c2.039,0,3.693,1.653,3.693,3.693v15.575c0,0.114-0.005,0.228-0.016,0.342l-0.191,2.05 c-0.278,2.989,2.91,4.997,5.531,3.533c3.219-1.797,7.08-3.114,11.715-3.114c13.199,0,18.719,9.6,18.719,24.479v33.266 c0,2.039-1.653,3.693-3.693,3.693H319.02c-2.039,0-3.693-1.653-3.693-3.693V329c0-7.68-1.92-9.6-6-9.6 c-3.305,0-5.365,1.244-7.864,3.426c-0.799,0.698-1.256,1.717-1.256,2.778v34.021c0,2.039-1.653,3.693-3.693,3.693h-13.253 c-2.039,0-3.693-1.653-3.693-3.693v-76.131C279.568,281.455,281.222,279.802,283.261,279.802z M359.873,302.601h-13.253 c-2.039,0-3.693-1.653-3.693-3.693v-9.894c0-2.039,1.653-3.693,3.693-3.693h54.533c2.039,0,3.693,1.653,3.693,3.693v9.894 c0,2.039-1.653,3.693-3.693,3.693h-13.254c-2.039,0-3.693,1.653-3.693,3.693v53.332c0,2.039-1.653,3.693-3.693,3.693h-13.254 c-2.039,0-3.693-1.653-3.693-3.693v-53.332C363.565,304.254,361.912,302.601,359.873,302.601z M431.717,325.497 c4.364-0.769,3.877-7.263-0.555-7.296c-0.052,0-0.105-0.001-0.158-0.001c-3.556,0-7.274,1.138-11.959,3.415 c-1.783,0.866-3.937,0.175-4.873-1.572l-3.779-7.055c-0.961-1.793-0.299-4.047,1.499-4.999c7.395-3.913,15.019-6.109,23.192-6.109 c15.6,0,24.959,8.399,24.959,28.079v29.666c0,2.039-1.653,3.693-3.693,3.693h-10.223c-1.694,0-3.171-1.153-3.582-2.797l-0.741-2.963 h-0.479c-4.8,4.32-10.08,7.199-16.56,7.199c-11.279,0-17.999-8.639-17.999-18.479C406.767,335.291,414.21,328.582,431.717,325.497z M431.966,348.919c2.817,0,4.621-1.181,6.404-2.977c0.674-0.679,1.035-1.609,1.035-2.565v-2.203c0-2.433-2.314-4.188-4.666-3.566 c-6.193,1.638-8.294,4.234-8.294,6.992C426.445,347.359,428.365,348.919,431.966,348.919z M478.618,279.802h13.253 c2.039,0,3.693,1.653,3.693,3.693v15.644c0,0.068-0.002,0.136-0.006,0.205l-0.063,1.137c-0.157,2.832,2.781,4.727,5.34,3.502 c2.861-1.37,5.935-2.102,9.008-2.102c14.16,0,23.399,12,23.399,30.358c0,20.76-12.239,32.519-24.959,32.519 c-5.279,0-10.56-2.64-15.119-7.919h-0.48l-0.963,3.713c-0.422,1.629-1.892,2.766-3.575,2.766h-9.529 c-2.039,0-3.693-1.653-3.693-3.693v-76.131C474.926,281.455,476.579,279.802,478.618,279.802z M503.244,347.959 c4.8,0,8.88-3.84,8.88-15.359c0-9.84-2.88-13.92-8.399-13.92c-2.712,0-4.881,0.907-7.135,3.194 c-0.668,0.677-1.025,1.606-1.025,2.557v18.811c0,1.26,0.629,2.457,1.703,3.116C499.187,347.534,501.216,347.959,503.244,347.959z M549.416,279.802h13.253c2.039,0,3.693,1.653,3.693,3.693v15.644c0,0.068-0.002,0.136-0.006,0.205l-0.063,1.137 c-0.157,2.832,2.781,4.727,5.34,3.502c2.861-1.37,5.935-2.102,9.008-2.102c14.16,0,23.399,12,23.399,30.358 c0,20.76-12.239,32.519-24.959,32.519c-5.28,0-10.56-2.64-15.119-7.919h-0.48l-0.963,3.713c-0.422,1.629-1.892,2.766-3.575,2.766 h-9.529c-2.039,0-3.693-1.653-3.693-3.693v-76.131C545.724,281.455,547.377,279.802,549.416,279.802z M574.042,347.959 c4.8,0,8.88-3.84,8.88-15.359c0-9.84-2.88-13.92-8.399-13.92c-2.712,0-4.88,0.907-7.135,3.194c-0.668,0.677-1.025,1.606-1.025,2.557 v18.811c0,1.26,0.629,2.457,1.703,3.116C569.985,347.534,572.014,347.959,574.042,347.959z M642.201,301.881 c17.759,0,26.159,12.959,26.159,29.039c0,1.817-0.122,3.511-0.29,4.929c-0.218,1.848-1.803,3.23-3.664,3.23h-25.242 c-3.238,0-4.891,3.858-2.689,6.232c2.625,2.83,6.39,3.848,10.765,3.848c3.11,0,6.08-0.697,9.229-2.092 c1.746-0.773,3.797-0.075,4.716,1.599l3.331,6.067c0.981,1.787,0.332,4.035-1.453,5.019c-5.962,3.288-13.019,5.005-18.703,5.005 c-17.52,0-30.959-11.52-30.959-31.438C613.402,313.881,627.562,301.881,642.201,301.881z M646.483,326.6 c2.655,0,4.519-2.754,3.394-5.159c-1.12-2.392-3.328-3.96-7.196-3.96c-2.779,0-5.292,0.936-7.101,3.162 c-1.936,2.381-0.146,5.957,2.922,5.957H646.483z M684.534,303.32h9.893c1.842,0,3.403,1.358,3.657,3.182l0.996,7.138h0.479 c4.44-8.16,11.16-11.76,17.039-11.76c1.437,0,2.623,0.072,3.635,0.201c2.116,0.271,3.567,2.258,3.171,4.353l-2.031,10.731 c-0.373,1.973-2.25,3.257-4.234,2.956c-0.974-0.148-2.006-0.243-3.18-0.243c-4.185,0-9.273,2.478-12.204,9.401 c-0.188,0.444-0.275,0.927-0.275,1.409v28.936c0,2.039-1.653,3.693-3.693,3.693h-13.253c-2.039,0-3.693-1.653-3.693-3.693v-52.613 C680.841,304.974,682.494,303.32,684.534,303.32z M400,40.242v10c0,2.761-2.239,5-5,5h-10c-2.761,0-5-2.239-5-5v-10 c0-2.761-2.239-5-5-5h-10c-2.761,0-5,2.239-5,5v10c0,2.761-2.239,5-5,5h-10c-2.761,0-5-2.239-5-5v-10c0-2.761-2.239-5-5-5h-10 c-2.761,0-5,2.239-5,5v10c0,2.761-2.239,5-5,5h-10c-2.761,0-5,2.239-5,5v10c0,2.761,2.239,5,5,5h10c2.761,0,5,2.239,5,5v10 c0,2.761-2.239,5-5,5h-10c-2.761,0-5,2.239-5,5v10c0,2.761,2.239,5,5,5h10c2.761,0,5,2.239,5,5v10c0,2.761-2.239,5-5,5h-10 c-2.761,0-5,2.239-5,5v90c0,2.761,2.239,5,5,5h95h40h20h35c2.761,0,5-2.239,5-5v-155v-20v-15c0-2.761-2.239-5-5-5h-90 C402.239,35.242,400,37.481,400,40.242z M345,75.242h10c2.761,0,5,2.239,5,5v10c0,2.761-2.239,5-5,5h-10c-2.761,0-5-2.239-5-5v-10 C340,77.481,342.239,75.242,345,75.242z M340,130.242v-10c0-2.761,2.239-5,5-5h10c2.761,0,5,2.239,5,5v10c0,2.761-2.239,5-5,5h-10 C342.239,135.242,340,133.004,340,130.242z M395,135.242h-10c-2.761,0-5-2.239-5-5v-10c0-2.761,2.239-5,5-5h10c2.761,0,5,2.239,5,5 v10C400,133.004,397.761,135.242,395,135.242z M395,95.242h-10c-2.761,0-5-2.239-5-5v-10c0-2.761,2.239-5,5-5h10 c2.761,0,5,2.239,5,5v10C400,93.004,397.761,95.242,395,95.242z M475,75.242h-10c-2.761,0-5,2.239-5,5v130c0,2.761-2.239,5-5,5h-10 c-2.761,0-5-2.239-5-5v-130c0-2.761-2.239-5-5-5h-10c-2.761,0-5-2.239-5-5v-10c0-2.761,2.239-5,5-5h50c2.761,0,5,2.239,5,5v10 C480,73.004,477.761,75.242,475,75.242z"/>
</svg>